 <svg  version="1.0" xmlns="http://www.w3.org/2000/svg"  width="300.000000pt" height="300.000000pt" viewBox="0 0 300.000000 300.000000"  preserveAspectRatio="xMidYMid meet">  <g transform="translate(0.000000,300.000000) scale(0.100000,-0.100000)" fill="#ffffff" stroke="none"> <path d="M1546 2824 c-36 -35 -5 -82 41 -61 28 12 30 38 5 60 -23 21 -27 21 -46 1z m42 -31 c-2 -10 -10 -18 -18 -18 -8 0 -16 8 -18 18 -2 12 3 17 18 17 15 0 20 -5 18 -17z"/> <path d="M1918 2783 c-9 -2 -22 -19 -28 -37 -13 -41 11 -112 41 -121 22 -7 69 30 69 56 0 8 5 20 12 27 9 9 9 12 0 12 -7 0 -12 6 -12 13 0 33 -44 60 -82 50z m55 -44 c8 -12 6 -30 -7 -64 -21 -53 -30 -50 -48 18 -11 41 -10 49 2 58 20 12 41 8 53 -12z"/> <path d="M1080 2765 c-13 -16 -6 -47 15 -65 8 -6 11 -19 7 -28 -5 -15 -4 -15 12 1 19 19 36 22 36 8 0 -5 -7 -17 -16 -25 -8 -9 -11 -16 -6 -16 5 0 15 7 22 15 11 13 11 20 0 39 -7 13 -9 29 -6 35 10 16 -12 51 -33 51 -10 0 -24 -7 -31 -15z m47 -21 c8 -21 -19 -38 -30 -18 -9 16 -1 34 14 34 5 0 12 -7 16 -16z"/> <path d="M1285 2746 c-28 -28 -31 -46 -13 -79 26 -50 59 -53 103 -9 27 27 26 54 -4 83 -30 31 -58 32 -86 5z m69 -22 c19 -19 20 -25 3 -48 -19 -26 -61 -18 -65 12 -7 44 32 67 62 36z"/> <path d="M891 2696 c-27 -28 -34 -43 -35 -81 -2 -32 -8 -50 -19 -57 -9 -5 -17 -6 -17 -3 0 3 -9 1 -20 -5 -13 -7 -20 -20 -19 -38 1 -22 2 -23 6 -5 7 36 29 47 45 24 8 -12 18 -18 22 -14 4 4 11 1 16 -6 7 -12 12 -12 32 2 65 46 77 69 77 144 -1 83 -32 97 -88 39z m55 -20 c-21 -32 -20 -36 4 -36 18 0 16 -7 -21 -60 -44 -61 -75 -74 -39 -16 25 42 25 45 -1 39 -26 -7 -24 -4 21 64 21 30 39 48 44 43 5 -5 2 -19 -8 -34z"/> <path d="M1724 2685 c-9 -23 3 -45 24 -45 29 0 48 26 32 45 -7 8 -21 15 -32 15 -10 0 -21 -7 -24 -15z"/> <path d="M2076 2644 c-34 -33 3 -92 42 -68 24 15 21 54 -4 71 -19 12 -24 12 -38 -3z m43 -46 c-12 -23 -32 -19 -37 7 -5 22 18 37 35 23 9 -7 10 -15 2 -30z"/> <path d="M1405 2543 c-22 -2 -68 -11 -102 -19 -34 -9 -69 -14 -78 -10 -9 3 -14 2 -11 -3 5 -8 -48 -26 -66 -22 -5 0 -8 -4 -8 -10 0 -6 -6 -9 -12 -7 -7 3 -19 -1 -26 -9 -8 -7 -18 -11 -23 -8 -5 4 -9 1 -9 -5 0 -6 -4 -8 -10 -5 -5 3 -10 1 -10 -5 0 -7 -7 -10 -15 -6 -8 3 -15 1 -15 -4 0 -6 -7 -10 -15 -10 -8 0 -15 -3 -15 -8 0 -4 -13 -13 -28 -20 -16 -6 -38 -21 -50 -32 -12 -12 -22 -18 -22 -14 0 4 -20 -13 -44 -37 -24 -24 -63 -62 -87 -84 -24 -22 -55 -57 -69 -77 -14 -21 -31 -38 -37 -38 -7 0 -13 -6 -13 -14 0 -7 -12 -31 -26 -52 -15 -21 -27 -44 -28 -51 -1 -7 -11 -22 -22 -34 -10 -11 -18 -23 -16 -25 7 -11 0 -34 -14 -49 -9 -9 -18 -34 -20 -55 -2 -21 -11 -60 -20 -86 -23 -68 -25 -81 -28 -165 -2 -42 -5 -80 -8 -85 -3 -5 -4 -16 -3 -25 2 -9 5 -45 6 -80 2 -35 7 -66 11 -69 4 -3 9 -25 10 -48 2 -23 5 -42 8 -42 3 0 12 -21 18 -47 17 -62 93 -233 103 -233 5 0 9 -4 9 -10 0 -36 203 -245 295 -304 125 -79 271 -138 375 -152 95 -12 102 -13 96 -6 -4 3 -44 14 -89 23 -306 62 -588 289 -719 577 -70 154 -102 374 -79 546 32 235 137 442 313 612 86 83 138 119 246 174 283 141 619 140 894 -2 43 -22 76 -43 74 -47 -3 -4 -1 -13 4 -21 7 -12 12 -12 21 -3 9 9 25 1 71 -35 261 -204 410 -526 395 -852 -10 -232 -96 -453 -238 -615 -17 -19 -29 -39 -27 -45 2 -6 30 24 63 65 33 42 67 85 76 96 9 11 23 34 30 52 7 17 18 39 24 47 6 8 17 33 23 55 32 111 46 161 48 168 1 4 2 8 3 10 5 6 11 124 12 237 1 102 -4 145 -25 233 -14 60 -29 114 -33 120 -4 7 -9 19 -10 29 -1 9 -26 60 -54 113 -28 53 -48 103 -45 111 3 7 0 16 -6 20 -6 4 -8 3 -4 -4 3 -6 2 -13 -4 -17 -5 -3 -10 1 -10 9 0 9 -6 16 -12 16 -14 0 -78 68 -78 82 0 5 -3 8 -7 6 -5 -2 -21 10 -38 26 -16 16 -23 26 -15 21 8 -4 6 1 -5 12 -11 11 -24 18 -29 15 -5 -3 -6 3 -2 14 4 10 4 15 0 12 -8 -9 -76 19 -86 35 -5 8 -8 9 -8 1 0 -7 -7 -14 -14 -17 -10 -4 -13 -1 -9 9 3 7 1 14 -5 14 -6 0 -29 18 -52 40 -23 22 -47 40 -55 40 -7 0 -34 9 -60 21 -26 12 -62 23 -79 26 -17 2 -55 11 -85 20 -50 14 -204 22 -296 16z"/> <path d="M2230 2542 c-31 -10 -60 -53 -60 -87 0 -44 49 -95 91 -95 16 0 29 5 29 10 0 6 6 10 14 10 16 0 58 82 46 90 -4 3 -10 15 -14 28 -11 33 -68 57 -106 44z m64 -43 c31 -25 34 -61 6 -89 -24 -24 -48 -25 -78 -4 -30 21 -30 77 0 98 29 21 40 20 72 -5z"/> <path d="M656 2474 c-31 -31 -18 -81 29 -114 11 -8 17 -10 13 -6 -4 5 -1 14 7 20 24 17 30 79 10 99 -21 21 -39 22 -59 1z m42 -54 c-2 -19 -8 -35 -14 -37 -15 -5 -23 64 -10 77 16 16 28 -4 24 -40z"/> <path d="M1287 2458 c-6 -4 -28 -8 -46 -8 -27 0 -32 -3 -23 -12 8 -8 29 -6 84 10 59 17 66 20 35 19 -21 0 -43 -5 -50 -9z"/> <path d="M1361 2441 c-1 -8 -8 -19 -18 -26 -14 -11 -13 -14 15 -35 35 -26 41 -50 17 -70 -20 -17 -19 -26 6 -51 19 -19 28 -21 89 -15 60 6 76 4 131 -20 47 -19 68 -23 80 -16 9 6 40 12 70 13 l54 3 18 -39 c28 -59 56 -86 83 -79 24 6 31 -9 50 -105 4 -18 13 -35 21 -38 7 -3 23 -27 34 -54 17 -38 28 -50 55 -59 27 -9 36 -19 41 -42 4 -19 19 -38 43 -54 l38 -25 49 24 c26 13 74 34 106 47 32 12 56 24 54 26 -2 3 -34 -5 -71 -17 -38 -11 -74 -18 -82 -15 -8 3 -13 2 -10 -3 8 -13 -14 -19 -53 -15 -40 5 -53 19 -48 51 2 12 1 22 -2 21 -20 -2 -43 3 -38 9 10 10 -31 35 -45 27 -6 -4 -8 -3 -4 4 3 6 2 13 -2 16 -14 8 -70 128 -74 156 -1 14 -13 35 -25 47 -13 12 -23 27 -23 33 0 9 -17 14 -47 13 -17 -1 -16 71 1 119 11 30 11 35 0 31 -8 -3 -14 -9 -14 -15 0 -5 -4 -7 -9 -4 -5 4 -7 -2 -4 -13 6 -25 -17 -39 -29 -17 -8 14 -13 15 -24 5 -11 -9 -14 -8 -14 2 0 12 -2 12 -9 0 -5 -8 -11 -9 -15 -3 -7 11 -44 5 -65 -12 -12 -9 -13 -8 -6 4 8 13 7 13 -9 1 -10 -9 -20 -11 -24 -5 -4 5 -18 11 -32 12 -14 2 -30 8 -36 13 -6 5 -14 6 -17 2 -4 -3 -7 -2 -7 3 0 5 -18 10 -40 10 -22 1 -40 -2 -40 -7 0 -4 -15 -6 -32 -5 -31 2 -33 5 -35 44 -1 34 1 40 15 35 9 -3 4 4 -11 16 -15 13 -34 37 -42 55 -7 17 -14 25 -14 17z"/> <path d="M1579 2423 c-8 -10 -9 -14 -2 -10 7 5 13 -1 16 -15 4 -22 4 -22 6 1 1 24 1 24 17 5 15 -18 15 -18 4 3 -15 31 -26 35 -41 16z"/> <path d="M1707 2413 c-22 -6 -18 -25 5 -29 11 -1 15 3 11 14 -4 10 -2 13 5 8 6 -3 13 -2 17 4 6 10 -6 11 -38 3z"/> <path d="M1918 2356 c-22 -16 -23 -26 -3 -26 8 0 15 5 15 10 0 6 5 10 10 10 7 0 7 -6 1 -19 -6 -10 -7 -22 -3 -27 4 -5 -2 -2 -13 6 -11 8 -17 11 -13 6 4 -5 3 -17 -3 -27 -7 -13 -6 -25 1 -37 10 -15 11 -15 6 0 -3 9 -2 18 2 20 16 7 51 61 46 69 -3 5 -1 8 4 7 6 -2 11 2 11 7 2 16 -42 16 -61 1z"/> <path d="M2017 2291 c-16 -27 -15 -29 12 -59 16 -17 26 -33 23 -36 -3 -3 0 -6 6 -6 7 0 12 -5 12 -11 0 -5 -5 -7 -11 -3 -8 4 -8 0 0 -15 7 -11 16 -21 21 -21 5 0 12 -11 16 -25 3 -14 10 -25 16 -25 5 0 18 -21 29 -47 46 -107 60 -134 74 -139 8 -4 13 -10 10 -14 -3 -4 4 -10 14 -13 14 -3 18 -11 14 -26 -5 -19 -3 -20 18 -13 23 8 67 78 56 89 -3 3 -20 -2 -38 -11 -30 -15 -34 -15 -51 0 -10 10 -18 23 -18 29 0 7 -9 24 -21 39 -14 18 -19 34 -15 51 5 18 1 27 -14 35 -11 6 -27 25 -35 43 -9 18 -22 43 -30 57 -27 48 -45 93 -45 115 0 34 -24 37 -43 6z"/> <path d="M2500 2311 c0 -5 -9 -13 -20 -16 -44 -14 -82 -122 -53 -151 17 -17 29 -18 38 -4 4 6 11 8 16 4 18 -10 58 40 76 95 16 52 16 54 -2 67 -21 16 -55 19 -55 5z m50 -20 c0 -4 -10 -21 -21 -36 -18 -22 -19 -29 -8 -35 16 -10 16 -10 -38 -44 -54 -33 -58 -33 -36 4 14 25 15 32 5 39 -10 6 0 18 35 44 49 37 63 43 63 28z"/> <path d="M404 2287 c-51 -58 -52 -94 -6 -134 48 -43 113 -21 131 43 11 39 -4 75 -40 94 -25 14 -72 12 -85 -3z m86 -37 c24 -24 25 -38 4 -68 -18 -26 -65 -30 -84 -7 -18 22 -15 66 6 82 25 19 51 16 74 -7z"/> <path d="M624 2289 c-8 -14 11 -33 25 -25 6 4 11 14 11 22 0 16 -26 19 -36 3z"/> <path d="M870 2250 c0 -6 12 -22 26 -35 14 -13 23 -28 20 -33 -3 -6 1 -13 10 -16 12 -5 15 -2 10 9 -3 9 -2 13 4 10 6 -3 10 -11 10 -16 0 -13 41 -48 55 -49 6 0 16 -9 23 -20 7 -11 19 -20 26 -20 8 0 16 -3 18 -7 6 -14 123 -109 143 -117 16 -6 17 -9 5 -16 -12 -8 -12 -10 -2 -10 8 0 24 -8 37 -17 12 -10 33 -25 45 -33 13 -8 36 -26 51 -38 16 -13 34 -22 40 -20 6 2 -17 29 -52 59 -125 109 -452 379 -461 379 -4 0 -8 -5 -8 -10z"/> <path d="M989 2219 c-8 -5 58 -9 164 -9 97 0 177 3 177 8 0 10 -325 12 -341 1z"/> <path d="M821 2183 c41 -49 518 -448 526 -439 13 12 -21 56 -72 93 -28 21 -63 53 -76 70 -13 18 -32 33 -41 33 -9 0 -23 8 -30 18 -7 9 -29 30 -48 45 -19 15 -51 41 -70 57 -45 37 -121 100 -149 123 -12 9 -28 17 -37 17 -14 0 -15 -2 -3 -17z"/> <path d="M2514 2099 c-3 -6 -2 -15 4 -21 13 -13 32 -2 32 18 0 16 -26 19 -36 3z"/> <path d="M281 2037 c-11 -27 7 -49 67 -84 l44 -26 21 22 c17 17 19 25 11 38 -12 20 -66 52 -107 64 -24 7 -29 4 -36 -14z m63 -26 c32 -23 46 -27 55 -18 8 8 11 6 11 -11 0 -12 -5 -22 -11 -22 -5 0 -7 -4 -4 -10 10 -17 -12 -11 -26 7 -10 11 -10 14 -1 9 6 -4 12 -5 12 -3 0 3 -20 18 -45 34 -25 15 -45 31 -45 36 0 12 10 8 54 -22z"/> <path d="M2603 2033 c-21 -8 -15 -51 9 -67 19 -14 24 -14 36 -2 12 11 11 18 -2 45 -17 31 -21 34 -43 24z m22 -32 c-3 -14 1 -18 11 -14 15 6 20 -12 5 -22 -5 -3 -17 5 -25 17 -20 28 -20 38 -2 38 9 0 13 -7 11 -19z"/> <path d="M775 1934 c-22 -41 -52 -97 -66 -124 l-27 -49 -25 36 c-23 32 -26 33 -35 17 -7 -14 -4 -35 9 -74 10 -30 19 -58 19 -62 0 -3 -18 -9 -39 -13 -37 -6 -65 -32 -35 -32 7 0 11 3 9 7 -2 4 9 7 26 8 27 1 30 -2 25 -21 -3 -12 -6 -28 -6 -34 0 -7 -5 -13 -10 -13 -6 0 -24 -12 -40 -27 l-30 -27 27 -28 c15 -15 34 -27 42 -26 13 3 16 -13 19 -95 l3 -97 27 5 c27 5 27 5 -3 -9 -16 -8 -30 -19 -30 -25 0 -15 -18 -14 -21 1 -1 7 -5 25 -9 41 -5 18 -3 27 5 27 6 0 9 -3 7 -7 -3 -5 -1 -17 3 -28 5 -12 8 23 9 83 0 57 -3 100 -8 98 -8 -5 -23 -77 -35 -170 -3 -21 -1 -47 4 -57 7 -11 7 -20 0 -24 -12 -7 -14 -55 -2 -55 4 0 29 25 55 55 42 48 101 95 83 67 -5 -9 162 -152 177 -152 3 0 -1 27 -9 60 -8 34 -17 98 -20 144 l-7 84 68 49 c99 70 102 73 88 79 -7 3 -23 14 -35 23 l-21 18 77 61 77 62 -125 0 c-69 0 -126 1 -126 3 0 1 -9 54 -20 117 -11 63 -20 130 -20 148 0 17 -4 32 -8 32 -4 0 -25 -34 -47 -76z m41 -59 c0 -5 4 -37 8 -70 12 -82 30 -115 64 -117 15 0 38 -2 52 -3 14 -2 41 -3 60 -4 l34 -1 -37 -36 c-20 -20 -37 -39 -38 -43 0 -3 -2 -14 -4 -24 -2 -9 1 -15 6 -11 5 3 12 -2 16 -11 4 -12 -4 -27 -25 -46 -36 -33 -39 -34 -39 -14 0 8 6 15 14 15 25 0 13 17 -52 68 -70 57 -120 130 -130 194 -6 32 -2 46 19 78 14 22 26 44 26 50 0 7 5 6 14 -2 7 -7 13 -17 12 -23z m-82 -106 c12 -76 51 -132 146 -212 49 -41 50 -40 -37 -21 -35 7 -22 -8 20 -22 36 -12 42 -23 24 -48 -13 -18 -16 -18 -75 5 -57 22 -79 39 -50 39 6 0 1 12 -13 26 l-24 26 28 22 c37 30 35 42 -3 14 -34 -25 -44 -20 -58 32 -8 26 -10 29 -11 12 -1 -26 30 -92 53 -111 14 -12 11 -18 -24 -58 -22 -25 -37 -49 -35 -53 6 -10 -5 -40 -14 -40 -4 0 -8 20 -9 43 -2 33 3 49 18 62 11 10 20 23 20 29 0 6 -10 -1 -21 -17 l-21 -27 -29 37 -30 37 23 12 c16 9 29 35 48 100 30 101 51 154 61 154 4 0 9 -18 13 -41z m90 -319 c62 -26 53 -38 -11 -14 -73 27 -97 41 -81 46 7 3 20 1 28 -4 8 -4 37 -17 64 -28z m-79 -1 c-4 -5 2 -9 13 -9 24 0 102 -38 102 -50 0 -10 -43 5 -67 23 -7 5 -17 6 -23 2 -5 -3 -10 -1 -10 5 0 7 -8 9 -21 5 -15 -5 -19 -4 -15 4 4 6 0 11 -8 11 -19 0 -22 -19 -3 -22 6 0 17 -2 22 -3 6 0 32 -11 59 -23 27 -12 52 -22 57 -22 5 0 9 -7 9 -16 0 -13 -3 -14 -13 -5 -18 14 -94 42 -132 47 -18 2 -7 -5 30 -19 94 -37 115 -49 115 -66 0 -9 3 -26 6 -38 l6 -22 -59 24 c-35 15 -78 25 -110 25 -52 0 -53 1 -53 30 0 28 3 30 38 31 32 0 34 1 15 9 -26 10 -29 20 -11 38 9 9 9 12 -2 12 -10 0 -9 4 3 18 17 18 62 28 52 11z m90 -198 c18 -10 31 -27 33 -42 2 -17 0 -20 -6 -11 -5 8 -12 13 -16 13 -23 -3 -30 0 -16 9 13 8 12 10 -2 10 -10 0 -18 5 -18 10 0 6 -6 10 -12 10 -7 0 -22 8 -33 17 -19 15 -19 15 10 8 17 -3 44 -14 60 -24z"/> <path d="M1473 1933 c92 -2 242 -2 335 0 92 1 16 3 -168 3 -184 0 -260 -2 -167 -3z"/> <path d="M2550 1868 l-25 -22 31 -33 c17 -18 33 -33 37 -33 4 0 14 14 22 31 15 28 15 33 0 55 -19 29 -32 30 -65 2z m50 -7 c7 -14 7 -27 -2 -45 l-11 -26 -12 23 c-8 15 -8 29 -2 45 12 27 14 27 27 3z"/> <path d="M1564 1870 c-101 -20 -193 -91 -235 -180 l-24 -50 -57 0 -58 0 0 -45 0 -45 54 0 c45 0 54 -3 52 -17 -1 -14 -13 -19 -51 -23 l-50 -5 -3 -42 -3 -43 60 0 c51 0 61 -3 61 -17 0 -28 57 -120 99 -162 80 -80 233 -106 354 -61 63 24 62 21 31 96 l-14 33 -42 -19 c-48 -22 -131 -26 -175 -9 -34 13 -80 55 -99 91 -27 51 -23 53 90 50 l103 -3 13 46 c14 52 37 75 27 29 -16 -83 -18 -84 -112 -84 -47 0 -85 -2 -85 -4 0 -3 5 -17 12 -33 6 -15 10 -36 9 -45 -3 -21 10 -23 28 -5 8 8 45 12 109 12 53 0 131 2 172 4 l75 3 -55 9 c-30 5 -83 10 -117 10 -35 1 -63 5 -63 9 0 3 9 25 20 48 11 22 20 51 20 63 0 11 11 35 25 51 14 16 23 34 20 38 -3 5 5 19 18 32 l23 23 304 0 c248 0 304 -2 302 -13 -1 -8 2 -11 8 -7 8 5 8 11 0 20 -9 10 -4 12 24 10 20 -2 39 1 42 7 5 7 -143 9 -473 7 -415 -4 -482 -2 -499 11 -18 14 -18 14 -5 -2 12 -16 10 -18 -18 -18 l-32 0 18 31 c31 54 87 84 157 84 54 0 81 -8 148 -43 5 -2 17 18 28 43 25 57 19 66 -53 93 -66 25 -131 32 -183 22z m136 -40 c50 -14 72 -32 65 -52 -6 -14 -12 -15 -33 -7 -100 39 -203 20 -265 -50 -40 -45 -41 -64 -7 -99 29 -30 29 -32 8 -32 -51 0 -78 -69 -40 -103 18 -16 26 -17 137 -14 33 1 61 -2 63 -8 1 -6 -33 -11 -85 -13 -92 -3 -113 -13 -113 -55 0 -20 41 -79 80 -114 41 -37 119 -49 195 -31 63 15 63 15 74 -8 12 -27 2 -38 -53 -53 -66 -18 -164 -8 -221 23 -110 59 -120 69 -144 144 -12 40 -29 72 -47 87 l-28 24 22 24 c28 30 28 46 -1 77 l-24 25 33 22 c21 15 43 45 60 83 24 53 35 65 84 94 32 19 66 36 76 39 34 9 129 7 164 -3z m40 -255 c-11 -33 -14 -35 -58 -36 -26 -1 -37 -4 -24 -6 49 -10 18 -23 -54 -23 -71 0 -75 1 -63 17 13 17 13 17 -13 0 -39 -24 -88 -23 -88 3 0 17 7 20 53 22 28 1 59 2 67 4 8 1 47 2 86 3 l71 1 13 43 c9 27 15 36 18 24 2 -9 -2 -33 -8 -52z m-67 35 c5 0 5 -4 2 -10 -8 -13 -162 -13 -169 -1 -10 16 16 21 89 16 39 -2 74 -5 78 -5z"/> <path d="M333 1773 c-4 -10 -14 -24 -24 -30 -9 -7 -19 -28 -21 -47 -3 -27 1 -37 17 -45 29 -16 77 0 94 31 19 33 9 56 -29 70 -20 7 -29 15 -26 24 3 8 3 14 0 14 -2 0 -8 -8 -11 -17z m52 -70 c-3 -16 -11 -32 -17 -38 -8 -7 -9 -5 -5 8 8 21 3 21 -29 1 -13 -9 -28 -13 -32 -9 -4 4 -2 10 5 12 7 2 9 11 6 19 -4 12 0 14 23 9 l29 -6 -30 15 -30 14 44 1 c42 1 43 0 36 -26z"/> <path d="M1523 1702 c-10 -9 -14 -14 -10 -10 5 3 29 -2 53 -12 24 -11 44 -18 44 -16 0 2 -15 15 -34 30 -33 24 -35 25 -53 8z"/> <path d="M2631 1684 l-32 -36 20 -31 c24 -38 67 -47 98 -20 37 31 37 57 3 92 -18 17 -37 31 -45 31 -7 0 -27 -16 -44 -36z m84 -24 c10 -17 -5 -49 -26 -55 -26 -8 -49 11 -49 41 0 41 53 50 75 14z"/> <path d="M285 1534 c-25 -25 -16 -68 16 -72 49 -6 63 48 20 75 -16 10 -23 10 -36 -3z m43 -31 c5 -17 -26 -29 -40 -15 -6 6 -7 15 -3 22 9 14 37 9 43 -7z"/> <path d="M394 1495 c-4 -8 -3 -22 0 -31 5 -13 9 -14 21 -4 8 7 15 18 15 25 0 19 -30 27 -36 10z"/> <path d="M2668 1465 c-8 -19 -8 -28 2 -40 17 -20 33 -19 55 5 17 19 17 21 0 40 -24 27 -43 25 -57 -5z m47 -16 c0 -7 -8 -15 -17 -17 -18 -3 -25 18 -11 32 10 10 28 1 28 -15z"/> <path d="M2068 1362 c-82 -4 -92 -14 -89 -90 l1 -58 -64 -67 c-35 -37 -68 -67 -73 -67 -6 0 -22 -11 -37 -25 -21 -20 -26 -33 -26 -75 0 -40 -5 -56 -24 -76 -13 -15 -29 -45 -36 -67 -14 -49 -67 -103 -110 -112 -16 -4 -32 -11 -35 -16 -12 -19 -36 -8 -61 30 -22 34 -25 46 -19 82 4 22 16 50 27 61 11 11 17 26 14 34 -3 8 -1 14 4 14 12 0 42 69 34 81 -3 5 -7 18 -9 30 -3 16 0 19 12 14 15 -5 16 -4 1 12 -9 10 -18 27 -22 38 -5 19 -1 20 67 20 87 0 198 29 215 55 10 16 4 15 -46 -7 -74 -34 -208 -43 -265 -20 -20 9 -37 15 -37 13 0 -2 13 -27 30 -57 38 -70 40 -126 5 -159 -15 -14 -25 -35 -25 -51 0 -18 -7 -32 -20 -39 -17 -9 -20 -17 -14 -48 6 -38 17 -57 57 -105 l23 -27 73 27 c79 29 113 62 126 121 4 20 20 43 40 59 33 27 34 29 28 84 l-6 56 48 23 c28 14 55 36 67 56 11 18 35 42 55 54 l35 21 -4 62 c-3 34 -8 69 -12 77 -6 14 77 18 462 20 21 0 22 2 8 15 -15 16 -31 21 -22 7 4 -7 -283 -8 -301 0 -4 1 -38 2 -75 0z"/> <path d="M1109 1142 c-326 -281 -345 -300 -330 -314 11 -10 14 -10 18 0 3 6 9 12 14 12 6 0 8 -4 4 -9 -3 -5 -1 -12 4 -16 6 -3 8 3 6 13 -5 26 49 74 65 58 8 -8 9 -6 4 7 -4 11 -1 23 9 30 38 31 375 314 397 334 14 13 27 23 30 23 3 0 6 9 7 20 1 11 -4 20 -10 20 -7 0 -105 -80 -218 -178z"/> <path d="M296 1269 c-30 -24 -34 -61 -8 -88 21 -23 39 -27 74 -18 40 11 50 68 17 103 -28 29 -48 30 -83 3z m68 -25 c20 -19 20 -38 2 -54 -23 -19 -61 -8 -64 18 -7 44 32 67 62 36z"/> <path d="M2362 1240 c-12 -12 -22 -24 -22 -28 0 -4 -27 -25 -60 -47 -56 -38 -59 -42 -60 -81 0 -29 -6 -47 -21 -60 -34 -31 -66 -105 -74 -171 -4 -38 -15 -73 -27 -88 -23 -29 -19 -32 9 -7 19 16 27 38 39 107 7 45 36 105 46 99 5 -3 8 1 6 9 -2 9 1 16 5 16 15 0 45 46 38 56 -4 6 -6 16 -5 23 1 6 2 20 3 30 0 10 13 25 28 33 30 15 55 33 84 61 11 10 21 13 24 7 9 -13 -14 -81 -31 -95 -13 -10 -12 -13 1 -18 9 -3 14 -2 11 3 -7 10 18 33 27 26 4 -3 5 -3 4 0 -2 3 1 26 8 52 11 45 9 93 -4 93 -4 0 -17 -9 -29 -20z"/> <path d="M1365 1244 c-6 -3 -40 -31 -75 -64 -36 -33 -83 -73 -105 -87 -22 -15 -50 -37 -61 -50 -12 -13 -25 -23 -29 -23 -5 0 -20 -13 -35 -30 -15 -16 -41 -46 -59 -65 -17 -19 -27 -35 -22 -35 10 0 395 322 406 339 6 11 -6 20 -20 15z"/> <path d="M2666 1144 c-17 -17 -12 -40 11 -48 21 -9 33 2 33 29 0 28 -24 39 -44 19z"/> <path d="M1303 1063 c42 -2 112 -2 155 0 42 1 7 3 -78 3 -85 0 -120 -2 -77 -3z"/> <path d="M1972 1063 c37 -2 100 -2 140 0 40 1 10 3 -67 3 -77 0 -110 -1 -73 -3z"/> <path d="M343 1053 c-33 -13 1 -68 35 -56 17 7 15 50 -4 57 -9 3 -16 6 -17 5 -1 0 -8 -3 -14 -6z"/> <path d="M477 988 c-22 -12 -22 -41 1 -62 18 -15 20 -15 36 3 31 34 1 81 -37 59z m27 -16 c8 -13 -5 -52 -15 -46 -12 7 -12 54 0 54 6 0 12 -4 15 -8z"/> <path d="M2597 963 c-4 -3 -7 -17 -7 -29 0 -30 44 -44 67 -21 12 11 13 19 4 36 -11 20 -50 29 -64 14z m51 -26 c2 -12 -3 -17 -17 -17 -12 0 -21 6 -21 13 0 31 32 34 38 4z"/> <path d="M1027 890 c-3 -12 0 -20 7 -20 30 0 114 -117 118 -165 2 -18 12 -31 30 -41 32 -17 38 -17 38 -3 0 5 -3 8 -8 5 -17 -11 -40 24 -52 77 -12 60 -45 108 -100 147 -28 20 -28 20 -33 0z"/> <path d="M412 828 c-18 -18 -15 -43 8 -63 19 -17 21 -17 40 0 25 23 26 51 1 65 -25 13 -34 13 -49 -2z m46 -31 c2 -12 -3 -17 -17 -17 -12 0 -21 6 -21 13 0 31 32 34 38 4z"/> <path d="M886 755 c4 -9 16 -20 28 -26 19 -9 19 -9 4 4 -10 8 -18 17 -18 21 0 9 28 7 32 -3 2 -5 9 -3 16 5 11 12 7 14 -27 14 -32 0 -39 -3 -35 -15z"/> <path d="M1170 761 c0 -15 27 -20 39 -8 6 6 11 7 11 2 0 -6 52 -10 124 -10 95 0 122 3 119 13 -6 14 -293 18 -293 3z"/> <path d="M1718 742 c-15 -16 -55 -39 -90 -52 -88 -31 -95 -43 -9 -16 39 12 81 32 94 43 36 33 107 54 107 31 0 -7 4 -7 13 0 6 5 38 10 71 11 32 0 61 3 64 6 3 3 -46 5 -109 5 -112 0 -114 0 -141 -28z"/> <path d="M2427 752 c-22 -24 -21 -55 1 -75 24 -22 55 -21 75 1 21 23 21 36 1 67 -19 30 -54 32 -77 7z m68 -42 c0 -20 -6 -26 -26 -28 -28 -3 -43 16 -32 44 3 9 15 14 32 12 20 -2 26 -8 26 -28z"/> <path d="M537 662 c-15 -26 -15 -31 -2 -42 9 -7 19 -10 22 -6 4 4 2 10 -4 14 -8 5 -7 14 6 31 l18 24 7 -28 c5 -20 2 -31 -11 -40 -10 -7 -15 -16 -11 -20 4 -4 18 4 32 18 26 26 35 44 17 32 -5 -3 -11 5 -13 17 -5 35 -40 35 -61 0z"/> <path d="M765 628 c-28 -15 -35 -28 -35 -63 0 -32 15 -55 36 -55 23 0 74 51 74 74 0 30 -48 58 -75 44z m36 -18 c27 -15 24 -32 -11 -65 -32 -31 -34 -31 -44 3 -7 22 9 33 16 11 3 -8 10 -6 21 5 31 31 16 47 -24 26 -24 -14 -26 5 -1 19 21 13 20 13 43 1z"/> <path d="M2315 590 c-15 -16 -17 -26 -9 -48 12 -34 44 -40 62 -12 11 17 10 26 -5 50 -21 36 -24 36 -48 10z m38 -21 c10 -36 -12 -65 -28 -38 -9 13 3 59 14 59 5 0 11 -9 14 -21z"/> <path d="M860 515 c-16 -20 -3 -71 23 -90 29 -20 44 -19 50 4 4 16 0 19 -21 18 -20 -2 -28 5 -39 31 -11 27 -11 32 1 32 8 0 17 -11 20 -24 5 -22 10 -24 48 -18 l42 5 -22 -28 c-27 -34 -20 -47 10 -18 25 26 19 49 -19 64 -15 6 -40 17 -54 25 -23 12 -28 12 -39 -1z"/> <path d="M2133 465 c-30 -21 -31 -77 -3 -103 30 -28 77 -26 96 3 16 25 26 88 13 79 -4 -2 -12 2 -16 11 -13 23 -64 29 -90 10z m85 -58 c4 -34 -30 -54 -64 -38 -31 14 -32 54 -2 75 19 13 25 14 43 2 11 -7 21 -25 23 -39z"/> </g> </svg> 